<svg height="512" viewBox="0 0 64 64" width="512" xmlns="http://www.w3.org/2000/svg"><g id="virus-covid19-corona-mask-protect"><path d="m47 45h-2c0 4.97-5.82 9-13 9s-13-4.03-13-9h-2a12 12 0 0 0 -12 12v4h54v-4a12 12 0 0 0 -12-12z" fill="#d80027"/><path d="m47 45h-2a12 12 0 0 1 12 12v4h2v-4a12 12 0 0 0 -12-12z" fill="#c20023"/><path d="m26.991 14.812 2.009-2.812 1.994 2.8a10 10 0 0 0 8.146 4.2h6.86v-2a14 14 0 0 0 -28 0v2h.854a10 10 0 0 0 8.137-4.188z" fill="#6d6e71"/><path d="m32 3c-.338 0-.668.027-1 .05a13.992 13.992 0 0 1 13 13.95v2h2v-2a14 14 0 0 0 -14-14z" fill="#58595b"/><path d="m24 45h-5c0 4.97 5.82 9 13 9s13-4.03 13-9h-5a2 2 0 0 1 -2-2v-3.35a14.008 14.008 0 0 1 -12 0v3.35a2 2 0 0 1 -2 2z" fill="#ffbcab"/><path d="m38 41.65v-2a14.008 14.008 0 0 1 -12 0v2a14.008 14.008 0 0 0 12 0z" fill="#ffb19d"/><path d="m48 10a8 8 0 0 1 8 8v26l-4-3.2a16 16 0 0 1 -6-12.49v-11.31a13.854 13.854 0 0 0 -1.88-7z" fill="#6d6e71"/><path d="m48 10h-2a8 8 0 0 1 8 8v24.4l2 1.6v-26a8 8 0 0 0 -8-8z" fill="#58595b"/><path d="m46 19v8a14 14 0 0 1 -28 0v-8h.85a10 10 0 0 0 8.14-4.19l2.01-2.81 1.99 2.8a9.992 9.992 0 0 0 8.15 4.2z" fill="#ffbcab"/><path d="m48 22h-2v5a14.033 14.033 0 0 1 -.144 2h2.144a2 2 0 0 0 2-2v-3a2 2 0 0 0 -2-2z" fill="#ff9478"/><path d="m16 22h2v5a14.033 14.033 0 0 0 .144 2h-2.144a2 2 0 0 1 -2-2v-3a2 2 0 0 1 2-2z" fill="#ff9478"/><path d="m27 22h-1a1 1 0 0 0 0 2h1a1 1 0 0 0 0-2z" fill="#414042"/><path d="m38 22h-1a1 1 0 0 0 0 2h1a1 1 0 0 0 0-2z" fill="#414042"/><path d="m19 60.922h-2v-2.922a1 1 0 0 1 1-1 1 1 0 0 1 1 1z" fill="#ab2300"/><path d="m45 60.922v-2.922a1 1 0 0 1 1-1 1 1 0 0 1 1 1v2.921z" fill="#ab2300"/><path d="m39.241 28.349 1.518 1.302 5.241-5.99v-3.036z" fill="#006df0"/><path d="m24.759 28.349-6.759-7.724v3.036l5.241 5.99z" fill="#006df0"/><path d="m31.132 26.193-6.566 1.459a2 2 0 0 0 -1.566 1.948v8.11a13.927 13.927 0 0 0 18 0v-8.11a2 2 0 0 0 -1.566-1.952l-6.566-1.459a4 4 0 0 0 -1.736.004z" fill="#57a4ff"/><path d="m37 27.111v4.819a5.211 5.211 0 0 1 -2.967 4.7l-.033.02a13.911 13.911 0 0 1 -11 .412v.648a13.927 13.927 0 0 0 18 0v-8.11a2 2 0 0 0 -1.566-1.952z" fill="#2488ff"/></g></svg>