<svg id="Capa_1" enable-background="new 0 0 64 64" height="512" viewBox="0 0 64 64" width="512" xmlns="http://www.w3.org/2000/svg"><g><path d="m14.657 41h10.343v1c0 1.657-1.343 3-3 3h10.888c.688.001 1.334.327 1.743.88.034-.002.068-.009.1-.02.572-.149 1.049-.545 1.3-1.08.415-.98.022-2.116-.91-2.63l-1.64-.94c.461.264 1.008.332 1.519.19.571-.147 1.045-.544 1.29-1.08.422-.98.028-2.12-.91-2.63l-9.43-5.45-2.59-1.5c-1.11 1.91-3.553 2.566-5.47 1.47l-.86-.5.86.5c1.917 1.096 4.36.44 5.47-1.47l2.59 1.5c1.435.829 3.27.338 4.098-1.097.001-.001.001-.002.002-.003l.5-.86-8.95-5.17c-.92-.533-2.014-.677-3.04-.4l-.9.24c-1.023.272-2.112.128-3.03-.4l-11.63-6.67v16.12l4.63 2.67c.919.53 1.588 1.405 1.86 2.43l.24.9c.279 1.016.942 1.884 1.85 2.42l.248-.248c.75-.75 1.768-1.172 2.829-1.172zm18.824.206-8.661-5z" fill="#ffa791"/><path d="m36 40.4c-.512.142-1.059.074-1.52-.19l1.322.758c.206-.18.372-.401.488-.648.005-.011.007-.022.012-.033-.098.045-.199.083-.302.113z" fill="#997b00"/><path d="m9.491 39.1c-.03-.111-.082-.212-.121-.319.039.107.091.208.12.319l.24.9c.044.136.096.269.154.4-.058-.131-.109-.264-.153-.4z" fill="#ff9478"/><path d="m10.953 41.965c-.068-.06-.121-.133-.185-.2.063.067.117.14.185.2z" fill="#ff9478"/><path d="m11.58 42.42c-.189-.112-.368-.24-.535-.383.167.143.346.271.535.383z" fill="#ff9478"/><path d="m10.768 41.767c-.384-.391-.685-.856-.884-1.367.197.512.498.977.884 1.367z" fill="#e5a99a"/><path d="m11.048 42.034c-.03-.025-.066-.043-.1-.069.034.026.07.044.1.069z" fill="#e5a99a"/><path d="m4 32.268-1 1.732z" fill="#e5a99a"/><path d="m7.63 36.67-4.63-2.67 4.627 2.672c.812.475 1.43 1.222 1.743 2.109-.312-.888-.928-1.636-1.74-2.111z" fill="#e5a99a"/><path d="m36.195 43.922c-.615.358-1.364.373-1.98.018l-9.526-5.5c-.478-.276-1.09-.112-1.366.366-.276.478-.112 1.09.366 1.366l9.526 5.5c.958.543 2.174.218 2.732-.732.187-.328.241-.578.248-1.018z" fill="#ff9478"/><path d="m36.459 39.476c-.149.087-.296.147-.462.193-.511.143-1.058.073-1.516-.194l-7.794-4.5c-.478-.276-1.09-.112-1.366.366-.276.478-.112 1.09.366 1.366l7.794 4.5c.958.543 2.174.218 2.732-.732.174-.306.251-.647.246-.999z" fill="#ff9478"/><path d="m25.132 29.457c-.422-.235-.952-.14-1.265.228-1.264 1.405-3.339 1.734-4.975.789-.478-.276-1.09-.112-1.366.366-.276.478-.112 1.09.366 1.366 1.913 1.105 4.359.449 5.464-1.464l2.6 1.5c1.099.631 2.477.512 3.439-.314l-2.441-1.418z" fill="#ff9478"/><path d="m60.88 31.99-2.661 21.258c-.125 1.001-.976 1.752-1.984 1.752h-12.47c-1.008 0-1.859-.751-1.984-1.752l-2.661-21.258c-.543-4.389 2.575-8.387 6.963-8.929.324-.041.651-.061.977-.061h5.88c4.422.004 8.004 3.591 8.001 8.013-.001.327-.021.653-.061.977z" fill="#ffcd00"/><path d="m52.94 23h-2c4.422.004 8.004 3.591 8.001 8.013 0 .326-.02.653-.061.977l-1.345 10.749c-.873 6.975-6.782 12.221-13.811 12.261h.041 12.47c1.008 0 1.859-.751 1.984-1.752l2.661-21.258c.543-4.389-2.575-8.387-6.963-8.929-.324-.041-.651-.061-.977-.061z" fill="#ebbf00"/><path d="m44 38h4v4h4v-4h4v-4h-4v-4h-4v4h-4z" fill="#ed1c24"/><path d="m48 13v6h2 2v-6z" fill="#a7a9ac"/><path d="m54 11c0-1.105-.895-2-2-2h-20c0 2.209 1.791 4 4 4h16c1.105 0 2-.895 2-2z" fill="#ab2300"/><path d="m34 26c-2.209 0-4-1.791-4-4 0-1.941 2.712-5.062 3.256-5.668l.744-.832.744.829c.544.609 3.256 3.73 3.256 5.671 0 2.209-1.791 4-4 4z" fill="#2488ff"/><path d="m48 19h2v4h-4v-2c0-1.105.895-2 2-2z" fill="#006df0"/><path d="m54 23h-4v-4h2c1.105 0 2 .895 2 2z" fill="#0057c0"/><path d="m11.172 59.172.656.656c.75.75 1.768 1.172 2.829 1.172h14.343c1.101-.008 1.992-.899 2-2-.003-1.103-.897-1.997-2-2h4c1.101-.008 1.992-.899 2-2-.003-1.103-.897-1.997-2-2h2c1.111-.007 2.006-.914 1.999-2.025 0-.051-.003-.101-.007-.152-.129-1.058-1.039-1.846-2.104-1.823h-1.888c1.111-.007 2.006-.914 1.999-2.025 0-.051-.003-.101-.007-.152-.031-.342-.156-.668-.361-.943-.409-.553-1.055-.879-1.743-.88h-10.888c1.657 0 3-1.343 3-3v-1h-10.343c-1.061 0-2.079.422-2.829 1.172l-.248.248-.408.408c-.75.75-1.768 1.172-2.829 1.172h-5.343v14h5.343c1.061 0 2.079.422 2.829 1.172z" fill="#ffbcab"/><g fill="#ff9478"><path d="m30.41 58.41c-.37.38-.879.593-1.41.59h-14.343c-1.061 0-2.079-.422-2.829-1.172l-.656-.656c-.75-.75-1.768-1.172-2.829-1.172h-5.343v2h5.343c1.061 0 2.079.422 2.829 1.172l.656.656c.75.75 1.768 1.172 2.829 1.172h14.343c1.096.009 1.992-.871 2.001-1.967.003-.363-.085-.721-.271-1.034-.085.15-.199.289-.32.411z"/><path d="m36.701 49.989c-.353.617-.99 1.01-1.701 1.011h-11c-.552 0-1 .448-1 1 0 .552.448 1 1 1h11c1.096.009 1.992-.871 2.001-1.967.003-.363-.083-.666-.3-1.044z"/><path d="m34.708 45.992c-.353.617-.997 1.007-1.708 1.008h-9c-.552 0-1 .448-1 1 0 .552.448 1 1 1h9c1.096.009 1.992-.871 2.001-1.967.003-.363-.084-.71-.293-1.041z"/><path d="m34.73 54c-.353.617-1.019.999-1.73 1h-9c-.552 0-1 .448-1 1 0 .552.448 1 1 1h9c1.096.009 1.992-.871 2.001-1.967.003-.363-.085-.721-.271-1.033z"/><path d="m19 44c0 .552.448 1 1 1h2c1.268-.002 2.414-.816 2.834-2.013l-4.834.013c-.552 0-1 .448-1 1z"/></g><path d="m48 13h4v2h-4z" fill="#86878a"/><path d="m12.58 41.42c-.908-.536-1.571-1.404-1.85-2.42l-.24-.9c-.272-1.025-.941-1.9-1.86-2.43l-5.63-3.355v1.685l4.63 2.67c.919.53 1.588 1.405 1.86 2.43l.24.9c.279 1.016.942 1.884 1.85 2.42l.248-.248c.278-.27.595-.498.939-.676z" fill="#ff9478"/></g></svg>