<?xml version="1.0" encoding="utf-8"?>
<svg width="81px" height="44px" viewBox="0 0 81 44" version="1.1" xmlns:xlink="http://www.w3.org/1999/xlink" xmlns="http://www.w3.org/2000/svg">
  <desc>Created with Lunacy</desc>
  <g id="India">
    <g id="In" fill="#595959">
      <path d="M7.488 9.994L7.488 34.006L2.376 34.006L2.376 9.994L7.488 9.994ZM28.44 21.73L28.44 34.006L23.868 34.006L23.868 23.494C23.868 21.082 22.608 20.254 20.664 20.254C18.864 20.254 17.46 21.262 16.704 22.306L16.704 34.006L12.132 34.006L12.132 16.618L16.704 16.618L16.704 18.886C17.82 17.554 19.944 16.186 22.788 16.186C26.604 16.186 28.44 18.346 28.44 21.73Z" />
    </g>
    <g id="dia" fill="#FE2C55">
      <path d="M56.34 14.746C57.852 14.746 59.076 13.522 59.076 12.01C59.076 10.498 57.852 9.31 56.34 9.31C54.864 9.31 53.604 10.498 53.604 12.01C53.604 13.522 54.864 14.746 56.34 14.746ZM49.536 34.006L49.536 9.994L44.928 9.994L44.928 18.85C43.56 17.086 41.616 16.186 39.564 16.186C35.136 16.186 31.86 19.642 31.86 25.33C31.86 31.126 35.172 34.438 39.564 34.438C41.652 34.438 43.56 33.502 44.928 31.774L44.928 34.006L49.536 34.006ZM70.596 16.186C74.556 16.186 78.192 17.77 78.192 22.774L78.192 34.006L73.62 34.006L73.62 32.206C72.432 33.61 70.38 34.438 68.112 34.438C65.34 34.438 62.064 32.566 62.064 28.678C62.064 24.61 65.34 23.062 68.112 23.062C70.416 23.062 72.468 23.818 73.62 25.186L73.62 22.846C73.62 21.082 72.108 19.93 69.804 19.93C67.932 19.93 66.204 20.614 64.728 21.982L63 18.922C65.124 17.05 67.86 16.186 70.596 16.186ZM58.644 34.006L58.644 16.618L54.072 16.618L54.072 34.006L58.644 34.006ZM40.968 30.37C38.376 30.37 36.576 28.318 36.576 25.33C36.576 22.306 38.376 20.254 40.968 20.254C42.516 20.254 44.172 21.082 44.928 22.234L44.928 28.39C44.172 29.542 42.516 30.37 40.968 30.37ZM66.672 28.786C66.672 30.406 68.148 31.342 69.948 31.342C71.424 31.342 72.864 30.838 73.62 29.83L73.62 27.67C72.864 26.662 71.424 26.158 69.948 26.158C68.148 26.158 66.672 27.094 66.672 28.786Z" />
    </g>
  </g>
</svg>