<svg height="512" viewBox="0 0 64 64" width="512" xmlns="http://www.w3.org/2000/svg"><g id="people-virus-protection-distance-covid19"><path d="m27 37v10h-6v14h-12v-14h-6v-10a4.012 4.012 0 0 1 4-4h16a4.012 4.012 0 0 1 4 4z" fill="#006df0"/><path d="m19 47h2v14h-2z" fill="#005ece"/><path d="m23 33h-2a4.012 4.012 0 0 1 4 4v10h2v-10a4.012 4.012 0 0 0 -4-4z" fill="#005ece"/><path d="m61 37v10h-6v14h-12v-14h-6v-10a4.012 4.012 0 0 1 4-4h16a4.012 4.012 0 0 1 4 4z" fill="#5eac24"/><path d="m53 47h2v14h-2z" fill="#4e901e"/><path d="m57 33h-2a4.012 4.012 0 0 1 4 4v10h2v-10a4.012 4.012 0 0 0 -4-4z" fill="#4e901e"/><path d="m44 18-5-5v2a1 1 0 0 1 -1 1h-12a1 1 0 0 1 -1-1v-2l-5 5 5 5v-2a1 1 0 0 1 1-1h12a1 1 0 0 1 1 1v2z" fill="#ed1c24"/><circle cx="15" cy="28" fill="#2488ff" r="5"/><circle cx="49" cy="28" fill="#7ed63e" r="5"/><path d="m40 5v4a1 1 0 0 1 -2 0v-4a1 1 0 0 0 -2 0v4a1 1 0 0 1 -2 0v-4a1 1 0 0 0 -2 0v4a1 1 0 0 1 -2 0v-4a3.009 3.009 0 0 1 3-3 2.974 2.974 0 0 1 2 .78 2.974 2.974 0 0 1 2-.78 3.009 3.009 0 0 1 3 3z" fill="#ed1c24"/><path d="m23 8a1 1 0 0 0 0 2h4a1 1 0 0 0 0-2h-1v-5a1 1 0 0 0 -1.447-.895l-2 1a1 1 0 0 0 .894 1.79l.553-.277v3.382z" fill="#ed1c24"/><path d="m55 39h2v8h-2z" fill="#4e901e"/><path d="m41 39h2v8h-2z" fill="#4e901e"/><path d="m48 49h2v12h-2z" fill="#4e901e"/><g fill="#005ece"><path d="m21 39h2v8h-2z"/><path d="m7 39h2v8h-2z"/><path d="m14 49h2v12h-2z"/></g></g></svg>