<?xml version="1.0" encoding="utf-8"?>
<svg width="230px" height="44px" viewBox="0 0 230 44" version="1.1" xmlns:xlink="http://www.w3.org/1999/xlink" xmlns="http://www.w3.org/2000/svg">
  <desc>Created with Lunacy</desc>
  <g id="Group">
    <g id="heart-(1)" transform="translate(87.81213 2.000061)">
      <path d="M0 0L20 0L20 20L0 20L0 0Z" id="Background" fill="none" stroke="none" />
      <path d="M20 6.01044C20 7.70157 19.3698 9.25033 18.0167 10.8829C16.8059 12.3438 15.0662 13.8264 13.0513 15.5434C12.3628 16.1299 11.5826 16.7949 10.7732 17.5032C10.5611 17.6888 10.2893 17.7917 10.007 17.7934L10 17.7934C9.71527 17.7934 9.44077 17.6903 9.22684 17.5029C8.41888 16.7964 7.63992 16.1322 6.95267 15.5464L6.94916 15.5438C4.93454 13.8268 3.19412 12.3438 1.98364 10.8829C0.630188 9.25033 0 7.70157 0 6.01044C0 4.36722 0.563507 2.85095 1.58661 1.74118C2.62207 0.618133 4.04266 0 5.58716 0C6.74179 0 7.79877 0.364685 8.72971 1.08444C9.19952 1.44791 9.62509 1.89224 10 2.41119L10.007 2.40189C10.3804 1.8869 10.8037 1.44562 11.2706 1.08444C12.2012 0.364685 13.2587 0 14.4128 0C15.9576 0 17.3782 0.618133 18.4134 1.74118C19.4365 2.85095 20 4.36676 20 6.01044L20 6.01044Z" id="Shape" fill="#FF5E95" stroke="none" />
      <path d="M9.99298 6.01044C9.99298 7.70157 9.36279 9.25033 8.00964 10.8829C6.79886 12.3438 5.0592 13.8264 3.04428 15.5434C2.3558 16.1299 1.57562 16.7949 0.766144 17.5032C0.554047 17.6888 0.282288 17.7917 0 17.7934L0 2.40189C0.373383 1.8869 0.796661 1.44562 1.26358 1.08444C2.19421 0.364685 3.25165 0 4.40582 0C5.95062 0 7.37122 0.618133 8.40637 1.74118C9.42947 2.85095 9.99298 4.36676 9.99298 6.01044L9.99298 6.01044Z" transform="translate(10.00702 0)" id="Shape" fill="#FF3980" stroke="none" />
    </g>
    <g id="Made-with-------and-support-of">
      <g id="Made-with-------and-support-of">
        <path d="M226.998 9.497L226.998 17.003L225.648 17.003L225.648 9.497L224.208 9.497L224.208 8.309L225.648 8.309L225.648 7.643C225.648 5.861 226.62 4.817 228.168 4.817C228.852 4.817 229.464 4.979 230.004 5.483L229.446 6.365C229.158 6.113 228.816 5.933 228.366 5.933C227.484 5.933 226.998 6.545 226.998 7.643L226.998 8.309L228.762 8.309L228.762 9.497L226.998 9.497ZM13.158 4.997L13.158 17.003L11.664 17.003L11.664 7.121L7.578 17.003L6.966 17.003L2.898 7.121L2.898 17.003L1.404 17.003L1.404 4.997L3.546 4.997L7.272 14.033L11.016 4.997L13.158 4.997ZM33.048 17.003L33.048 4.997L31.698 4.997L31.698 9.623C30.996 8.669 29.934 8.093 28.764 8.093C26.478 8.093 24.894 9.893 24.894 12.665C24.894 15.491 26.496 17.219 28.764 17.219C29.988 17.219 31.05 16.589 31.698 15.707L31.698 17.003L33.048 17.003ZM80.316 10.865L80.316 17.003L78.966 17.003L78.966 11.279C78.966 9.749 78.174 9.299 77.004 9.299C75.96 9.299 74.952 9.947 74.43 10.649L74.43 17.003L73.08 17.003L73.08 4.997L74.43 4.997L74.43 9.569C75.042 8.849 76.23 8.093 77.544 8.093C79.362 8.093 80.316 8.975 80.316 10.865ZM142.578 17.003L142.578 4.997L141.228 4.997L141.228 9.623C140.526 8.669 139.464 8.093 138.294 8.093C136.008 8.093 134.424 9.893 134.424 12.665C134.424 15.491 136.026 17.219 138.294 17.219C139.518 17.219 140.58 16.589 141.228 15.707L141.228 17.003L142.578 17.003ZM65.322 6.167C65.322 6.671 64.908 7.067 64.404 7.067C63.918 7.067 63.504 6.671 63.504 6.167C63.504 5.663 63.918 5.249 64.404 5.249C64.908 5.249 65.322 5.663 65.322 6.167ZM69.984 17.219C70.776 17.219 71.262 16.985 71.604 16.661L71.208 15.653C71.028 15.851 70.668 16.013 70.29 16.013C69.696 16.013 69.408 15.545 69.408 14.897L69.408 9.497L71.172 9.497L71.172 8.309L69.408 8.309L69.408 5.933L68.058 5.933L68.058 8.309L66.618 8.309L66.618 9.497L68.058 9.497L68.058 15.185C68.058 16.481 68.706 17.219 69.984 17.219ZM208.854 16.661C208.512 16.985 208.026 17.219 207.234 17.219C205.956 17.219 205.308 16.481 205.308 15.185L205.308 9.497L203.868 9.497L203.868 8.309L205.308 8.309L205.308 5.933L206.658 5.933L206.658 8.309L208.422 8.309L208.422 9.497L206.658 9.497L206.658 14.897C206.658 15.545 206.946 16.013 207.54 16.013C207.918 16.013 208.278 15.851 208.458 15.653L208.854 16.661ZM22.698 11.027L22.698 17.003L21.348 17.003L21.348 16.013C20.628 16.805 19.638 17.219 18.468 17.219C16.992 17.219 15.426 16.229 15.426 14.339C15.426 12.395 16.992 11.477 18.468 11.477C19.656 11.477 20.646 11.855 21.348 12.665L21.348 11.099C21.348 9.929 20.412 9.263 19.152 9.263C18.108 9.263 17.262 9.641 16.488 10.469L15.858 9.533C16.794 8.561 17.91 8.093 19.332 8.093C21.168 8.093 22.698 8.921 22.698 11.027ZM43.128 15.887C42.264 16.751 41.094 17.219 39.672 17.219C37.098 17.219 35.244 15.365 35.244 12.647C35.244 10.127 37.044 8.093 39.528 8.093C42.156 8.093 43.704 10.145 43.704 12.755L43.704 13.097L36.666 13.097C36.774 14.735 37.926 16.103 39.798 16.103C40.788 16.103 41.796 15.707 42.48 15.005L43.128 15.887ZM122.31 17.003L122.31 11.027C122.31 8.921 120.78 8.093 118.944 8.093C117.522 8.093 116.406 8.561 115.47 9.533L116.1 10.469C116.874 9.641 117.72 9.263 118.764 9.263C120.024 9.263 120.96 9.929 120.96 11.099L120.96 12.665C120.258 11.855 119.268 11.477 118.08 11.477C116.604 11.477 115.038 12.395 115.038 14.339C115.038 16.229 116.604 17.219 118.08 17.219C119.25 17.219 120.24 16.805 120.96 16.013L120.96 17.003L122.31 17.003ZM132.228 10.901L132.228 17.003L130.878 17.003L130.878 11.315C130.878 9.785 130.104 9.299 128.934 9.299C127.872 9.299 126.864 9.947 126.36 10.649L126.36 17.003L125.01 17.003L125.01 8.309L126.36 8.309L126.36 9.569C126.972 8.849 128.16 8.093 129.456 8.093C131.274 8.093 132.228 9.011 132.228 10.901ZM156.096 14.591C156.096 16.049 154.926 17.219 152.676 17.219C151.254 17.219 150.048 16.787 149.166 15.851L149.868 14.879C150.444 15.545 151.542 16.121 152.73 16.121C154.062 16.121 154.782 15.491 154.782 14.627C154.782 12.521 149.4 13.817 149.4 10.595C149.4 9.245 150.57 8.093 152.64 8.093C154.116 8.093 155.16 8.651 155.862 9.353L155.232 10.289C154.71 9.659 153.756 9.191 152.64 9.191C151.452 9.191 150.714 9.785 150.714 10.559C150.714 12.467 156.096 11.207 156.096 14.591ZM176.364 12.647C176.364 15.455 174.78 17.219 172.494 17.219C171.306 17.219 170.262 16.661 169.56 15.689L169.56 20.315L168.21 20.315L168.21 8.309L169.56 8.309L169.56 9.605C170.19 8.723 171.27 8.093 172.494 8.093C174.78 8.093 176.364 9.821 176.364 12.647ZM182.79 17.219C185.076 17.219 186.66 15.455 186.66 12.647C186.66 9.821 185.076 8.093 182.79 8.093C181.566 8.093 180.486 8.723 179.856 9.605L179.856 8.309L178.506 8.309L178.506 20.315L179.856 20.315L179.856 15.689C180.558 16.661 181.602 17.219 182.79 17.219ZM196.902 12.647C196.902 15.167 195.246 17.219 192.6 17.219C189.954 17.219 188.298 15.167 188.298 12.647C188.298 10.127 189.954 8.093 192.6 8.093C195.246 8.093 196.902 10.127 196.902 12.647ZM218.772 17.219C221.418 17.219 223.074 15.167 223.074 12.647C223.074 10.127 221.418 8.093 218.772 8.093C216.126 8.093 214.47 10.127 214.47 12.647C214.47 15.167 216.126 17.219 218.772 17.219ZM200.448 17.003L200.448 10.847C200.844 10.145 201.978 9.461 202.806 9.461C203.022 9.461 203.184 9.479 203.346 9.515L203.346 8.129C202.158 8.129 201.15 8.795 200.448 9.713L200.448 8.309L199.098 8.309L199.098 17.003L200.448 17.003ZM59.4 17.003L62.172 8.309L60.768 8.309L58.644 15.239L56.358 8.309L55.206 8.309L52.92 15.239L50.796 8.309L49.392 8.309L52.164 17.003L53.514 17.003L55.782 10.019L58.05 17.003L59.4 17.003ZM65.088 8.309L65.088 17.003L63.738 17.003L63.738 8.309L65.088 8.309ZM165.51 17.003L165.51 8.309L164.16 8.309L164.16 14.699C163.656 15.401 162.648 16.013 161.586 16.013C160.416 16.013 159.642 15.563 159.642 14.033L159.642 8.309L158.292 8.309L158.292 14.447C158.292 16.337 159.246 17.219 161.064 17.219C162.36 17.219 163.494 16.535 164.16 15.779L164.16 17.003L165.51 17.003ZM36.666 12.107L42.372 12.107C42.354 10.811 41.49 9.209 39.51 9.209C37.656 9.209 36.738 10.775 36.666 12.107ZM29.088 16.013C27.342 16.013 26.298 14.591 26.298 12.665C26.298 10.739 27.342 9.299 29.088 9.299C30.168 9.299 31.212 9.947 31.698 10.703L31.698 14.645C31.212 15.401 30.168 16.013 29.088 16.013ZM138.618 16.013C136.872 16.013 135.828 14.591 135.828 12.665C135.828 10.739 136.872 9.299 138.618 9.299C139.698 9.299 140.742 9.947 141.228 10.703L141.228 14.645C140.742 15.401 139.698 16.013 138.618 16.013ZM169.56 14.609C170.028 15.365 171.09 16.013 172.152 16.013C173.898 16.013 174.942 14.573 174.942 12.647C174.942 10.721 173.898 9.299 172.152 9.299C171.09 9.299 170.028 9.929 169.56 10.685L169.56 14.609ZM182.448 16.013C181.386 16.013 180.324 15.365 179.856 14.609L179.856 10.685C180.324 9.929 181.386 9.299 182.448 9.299C184.194 9.299 185.238 10.721 185.238 12.647C185.238 14.573 184.194 16.013 182.448 16.013ZM189.702 12.647C189.702 14.429 190.746 16.013 192.6 16.013C194.454 16.013 195.48 14.429 195.48 12.647C195.48 10.883 194.454 9.299 192.6 9.299C190.746 9.299 189.702 10.883 189.702 12.647ZM218.772 16.013C216.918 16.013 215.874 14.429 215.874 12.647C215.874 10.883 216.918 9.299 218.772 9.299C220.626 9.299 221.652 10.883 221.652 12.647C221.652 14.429 220.626 16.013 218.772 16.013ZM16.812 14.357C16.812 15.455 17.694 16.247 18.954 16.247C19.908 16.247 20.826 15.887 21.348 15.167L21.348 13.529C20.826 12.809 19.908 12.449 18.954 12.449C17.694 12.449 16.812 13.241 16.812 14.357ZM118.566 16.247C117.306 16.247 116.424 15.455 116.424 14.357C116.424 13.241 117.306 12.449 118.566 12.449C119.52 12.449 120.438 12.809 120.96 13.529L120.96 15.167C120.438 15.887 119.52 16.247 118.566 16.247Z" />
      </g>
      <g id="heros-fighting-pandemic">
        <path d="M73.899 39.003L73.899 31.497L75.663 31.497L75.663 30.309L73.899 30.309L73.899 29.643C73.899 28.545 74.385 27.933 75.267 27.933C75.717 27.933 76.059 28.113 76.347 28.365L76.905 27.483C76.365 26.979 75.753 26.817 75.069 26.817C73.521 26.817 72.549 27.861 72.549 29.643L72.549 30.309L71.109 30.309L71.109 31.497L72.549 31.497L72.549 39.003L73.899 39.003ZM30.087 39.003L30.087 32.865C30.087 30.975 29.133 30.093 27.315 30.093C26.001 30.093 24.813 30.849 24.201 31.569L24.201 26.997L22.851 26.997L22.851 39.003L24.201 39.003L24.201 32.649C24.723 31.947 25.731 31.299 26.775 31.299C27.945 31.299 28.737 31.749 28.737 33.279L28.737 39.003L30.087 39.003ZM98.883 32.865L98.883 39.003L97.533 39.003L97.533 33.279C97.533 31.749 96.741 31.299 95.571 31.299C94.527 31.299 93.519 31.947 92.997 32.649L92.997 39.003L91.647 39.003L91.647 26.997L92.997 26.997L92.997 31.569C93.609 30.849 94.797 30.093 96.111 30.093C97.929 30.093 98.883 30.975 98.883 32.865ZM173.169 26.997L173.169 39.003L171.819 39.003L171.819 37.707C171.171 38.589 170.109 39.219 168.885 39.219C166.617 39.219 165.015 37.491 165.015 34.665C165.015 31.893 166.599 30.093 168.885 30.093C170.055 30.093 171.117 30.669 171.819 31.623L171.819 26.997L173.169 26.997ZM78.849 28.167C78.849 28.671 78.435 29.067 77.931 29.067C77.445 29.067 77.031 28.671 77.031 28.167C77.031 27.663 77.445 27.249 77.931 27.249C78.435 27.249 78.849 27.663 78.849 28.167ZM108.459 28.167C108.459 28.671 108.045 29.067 107.541 29.067C107.055 29.067 106.641 28.671 106.641 28.167C106.641 27.663 107.055 27.249 107.541 27.249C108.045 27.249 108.459 27.663 108.459 28.167ZM201.213 29.067C201.717 29.067 202.131 28.671 202.131 28.167C202.131 27.663 201.717 27.249 201.213 27.249C200.727 27.249 200.313 27.663 200.313 28.167C200.313 28.671 200.727 29.067 201.213 29.067ZM103.779 39.219C104.571 39.219 105.057 38.985 105.399 38.661L105.003 37.653C104.823 37.851 104.463 38.013 104.085 38.013C103.491 38.013 103.203 37.545 103.203 36.897L103.203 31.497L104.967 31.497L104.967 30.309L103.203 30.309L103.203 27.933L101.853 27.933L101.853 30.309L100.413 30.309L100.413 31.497L101.853 31.497L101.853 37.185C101.853 38.481 102.501 39.219 103.779 39.219ZM36.711 39.219C38.133 39.219 39.303 38.751 40.167 37.887L39.519 37.005C38.835 37.707 37.827 38.103 36.837 38.103C34.965 38.103 33.813 36.735 33.705 35.097L40.743 35.097L40.743 34.755C40.743 32.145 39.195 30.093 36.567 30.093C34.083 30.093 32.283 32.127 32.283 34.647C32.283 37.365 34.137 39.219 36.711 39.219ZM52.659 39.219C55.305 39.219 56.961 37.167 56.961 34.647C56.961 32.127 55.305 30.093 52.659 30.093C50.013 30.093 48.357 32.127 48.357 34.647C48.357 37.167 50.013 39.219 52.659 39.219ZM65.331 36.591C65.331 38.049 64.161 39.219 61.911 39.219C60.489 39.219 59.283 38.787 58.401 37.851L59.103 36.879C59.679 37.545 60.777 38.121 61.965 38.121C63.297 38.121 64.017 37.491 64.017 36.627C64.017 34.521 58.635 35.817 58.635 32.595C58.635 31.245 59.805 30.093 61.875 30.093C63.351 30.093 64.395 30.651 65.097 31.353L64.467 32.289C63.945 31.659 62.991 31.191 61.875 31.191C60.687 31.191 59.949 31.785 59.949 32.559C59.949 34.467 65.331 33.207 65.331 36.591ZM84.807 42.531C86.931 42.531 88.947 41.631 88.947 38.751L88.947 30.309L87.597 30.309L87.597 31.623C86.895 30.669 85.851 30.093 84.681 30.093C82.395 30.093 80.811 31.821 80.811 34.611C80.811 37.419 82.413 39.111 84.681 39.111C85.905 39.111 86.967 38.445 87.597 37.563L87.597 38.805C87.597 40.713 86.247 41.415 84.807 41.415C83.565 41.415 82.701 41.091 81.981 40.227L81.297 41.235C82.323 42.243 83.331 42.531 84.807 42.531ZM118.143 39.003L118.143 32.901C118.143 31.011 117.189 30.093 115.371 30.093C114.075 30.093 112.887 30.849 112.275 31.569L112.275 30.309L110.925 30.309L110.925 39.003L112.275 39.003L112.275 32.649C112.779 31.947 113.787 31.299 114.849 31.299C116.019 31.299 116.793 31.785 116.793 33.315L116.793 39.003L118.143 39.003ZM128.475 38.751C128.475 41.631 126.459 42.531 124.335 42.531C122.859 42.531 121.851 42.243 120.825 41.235L121.509 40.227C122.229 41.091 123.093 41.415 124.335 41.415C125.775 41.415 127.125 40.713 127.125 38.805L127.125 37.563C126.495 38.445 125.433 39.111 124.209 39.111C121.941 39.111 120.339 37.419 120.339 34.611C120.339 31.821 121.923 30.093 124.209 30.093C125.379 30.093 126.423 30.669 127.125 31.623L127.125 30.309L128.475 30.309L128.475 38.751ZM140.103 39.219C142.389 39.219 143.973 37.455 143.973 34.647C143.973 31.821 142.389 30.093 140.103 30.093C138.879 30.093 137.799 30.723 137.169 31.605L137.169 30.309L135.819 30.309L135.819 42.315L137.169 42.315L137.169 37.689C137.871 38.661 138.915 39.219 140.103 39.219ZM152.901 33.027L152.901 39.003L151.551 39.003L151.551 38.013C150.831 38.805 149.841 39.219 148.671 39.219C147.195 39.219 145.629 38.229 145.629 36.339C145.629 34.395 147.195 33.477 148.671 33.477C149.859 33.477 150.849 33.855 151.551 34.665L151.551 33.099C151.551 31.929 150.615 31.263 149.355 31.263C148.311 31.263 147.465 31.641 146.691 32.469L146.061 31.533C146.997 30.561 148.113 30.093 149.535 30.093C151.371 30.093 152.901 30.921 152.901 33.027ZM162.819 39.003L162.819 32.901C162.819 31.011 161.865 30.093 160.047 30.093C158.751 30.093 157.563 30.849 156.951 31.569L156.951 30.309L155.601 30.309L155.601 39.003L156.951 39.003L156.951 32.649C157.455 31.947 158.463 31.299 159.525 31.299C160.695 31.299 161.469 31.785 161.469 33.315L161.469 39.003L162.819 39.003ZM179.793 39.219C181.215 39.219 182.385 38.751 183.249 37.887L182.601 37.005C181.917 37.707 180.909 38.103 179.919 38.103C178.047 38.103 176.895 36.735 176.787 35.097L183.825 35.097L183.825 34.755C183.825 32.145 182.277 30.093 179.649 30.093C177.165 30.093 175.365 32.127 175.365 34.647C175.365 37.365 177.219 39.219 179.793 39.219ZM197.847 32.721L197.847 39.003L196.497 39.003L196.497 33.099C196.497 32.001 196.011 31.299 194.895 31.299C193.995 31.299 193.041 31.947 192.591 32.631L192.591 39.003L191.241 39.003L191.241 33.099C191.241 32.001 190.773 31.299 189.639 31.299C188.757 31.299 187.821 31.947 187.353 32.649L187.353 39.003L186.003 39.003L186.003 30.309L187.353 30.309L187.353 31.569C187.713 31.011 188.883 30.093 190.161 30.093C191.493 30.093 192.249 30.813 192.501 31.713C192.987 30.921 194.157 30.093 195.417 30.093C197.001 30.093 197.847 30.975 197.847 32.721ZM211.617 37.707C210.951 38.571 210.015 39.219 208.431 39.219C205.839 39.219 204.093 37.239 204.093 34.647C204.093 32.073 205.839 30.093 208.431 30.093C210.015 30.093 210.951 30.741 211.617 31.605L210.717 32.433C210.141 31.641 209.403 31.299 208.503 31.299C206.649 31.299 205.497 32.721 205.497 34.647C205.497 36.573 206.649 38.013 208.503 38.013C209.403 38.013 210.141 37.653 210.717 36.879L211.617 37.707ZM44.271 32.847L44.271 39.003L42.921 39.003L42.921 30.309L44.271 30.309L44.271 31.713C44.973 30.795 45.981 30.129 47.169 30.129L47.169 31.515C47.007 31.479 46.845 31.461 46.629 31.461C45.801 31.461 44.667 32.145 44.271 32.847ZM78.615 30.309L78.615 39.003L77.265 39.003L77.265 30.309L78.615 30.309ZM108.225 30.309L108.225 39.003L106.875 39.003L106.875 30.309L108.225 30.309ZM201.897 39.003L201.897 30.309L200.547 30.309L200.547 39.003L201.897 39.003ZM39.411 34.107L33.705 34.107C33.777 32.775 34.695 31.209 36.549 31.209C38.529 31.209 39.393 32.811 39.411 34.107ZM182.493 34.107L176.787 34.107C176.859 32.775 177.777 31.209 179.631 31.209C181.611 31.209 182.475 32.811 182.493 34.107ZM52.659 38.013C50.805 38.013 49.761 36.429 49.761 34.647C49.761 32.883 50.805 31.299 52.659 31.299C54.513 31.299 55.539 32.883 55.539 34.647C55.539 36.429 54.513 38.013 52.659 38.013ZM85.005 37.923C83.259 37.923 82.215 36.519 82.215 34.611C82.215 32.685 83.259 31.299 85.005 31.299C86.085 31.299 87.129 31.947 87.597 32.703L87.597 36.501C87.129 37.257 86.085 37.923 85.005 37.923ZM121.743 34.611C121.743 36.519 122.787 37.923 124.533 37.923C125.613 37.923 126.657 37.257 127.125 36.501L127.125 32.703C126.657 31.947 125.613 31.299 124.533 31.299C122.787 31.299 121.743 32.685 121.743 34.611ZM139.761 38.013C138.699 38.013 137.637 37.365 137.169 36.609L137.169 32.685C137.637 31.929 138.699 31.299 139.761 31.299C141.507 31.299 142.551 32.721 142.551 34.647C142.551 36.573 141.507 38.013 139.761 38.013ZM166.419 34.665C166.419 36.591 167.463 38.013 169.209 38.013C170.289 38.013 171.333 37.401 171.819 36.645L171.819 32.703C171.333 31.947 170.289 31.299 169.209 31.299C167.463 31.299 166.419 32.739 166.419 34.665ZM147.015 36.357C147.015 37.455 147.897 38.247 149.157 38.247C150.111 38.247 151.029 37.887 151.551 37.167L151.551 35.529C151.029 34.809 150.111 34.449 149.157 34.449C147.897 34.449 147.015 35.241 147.015 36.357Z" />
      </g>
    </g>
  </g>
</svg>