<svg height="512" viewBox="0 0 64 64" width="512" xmlns="http://www.w3.org/2000/svg"><g id="workhome-virus-covid19-coronavirus-home"><path d="m56 24.72v36.28h-48v-36.28l24-15.72z" fill="#ffa733"/><path d="m52 22.1v11.9a24 24 0 0 1 -24 24h-20v3h48v-36.28z" fill="#ff9811"/><path d="m16 26h16v10h-16z" fill="#a7a9ac"/><path d="m14 39h36v4h-36z" fill="#414042"/><path d="m17 43v14h3v-2-12z" fill="#58595b"/><path d="m44 55v2h3v-14h-3z" fill="#58595b"/><path d="m48 36a4 4 0 0 0 -4-4h-4a4 4 0 0 0 -4 4v3h12z" fill="#004fac"/><circle cx="42" cy="29" fill="#004fac" r="3"/><path d="m20 43h24v12h-24z" fill="#939598"/><path d="m3 22v6l5-3.276v-.004.004l24-15.724 24 15.724v-.004.004l5 3.276v-6l-29-19z" fill="#d80027"/><path d="m20 43h24v2h-24z" fill="#808285"/><path d="m26 39v-5a2 2 0 0 0 -4 0v5" fill="#6d6e71"/></g></svg>